<svg xmlns="http://www.w3.org/2000/svg" width="80.001" height="80" viewBox="0 0 80.001 80">
  <g id="그룹_556" data-name="그룹 556" transform="translate(-980 -1338)">
    <rect id="사각형_245" data-name="사각형 245" width="80" height="80" transform="translate(980 1338)" fill="none"/>
    <g id="그룹_489" data-name="그룹 489" transform="translate(807.766 617.103)">
      <path id="패스_671" data-name="패스 671" d="M192.245,754.294a116.406,116.406,0,0,0,10.141,22.773c2.774,4.529,5.837,9.687,10.877,13.028a22.874,22.874,0,0,0,12.458,3.685A21.769,21.769,0,0,0,240.34,788c3.284-3.058,7.536-8.952,7.536-20.451,0-3.964,1.755-7.367,3.057-10.084a1.432,1.432,0,0,1,.17-.4,10.363,10.363,0,0,0,1.132-4.077,6.068,6.068,0,0,0-1.014-3.4,5.622,5.622,0,0,0-5.044-2.6c-4.359,0-7.367,3.058-8.9,6.176l-.507,1.02c-.623-.906-1.246-1.868-1.755-2.717a36.3,36.3,0,0,1-3.285-7.028,47.88,47.88,0,0,1-1.471-5.777c-.963-5.554-2.549-7.366-5.159-8.046a7.555,7.555,0,0,0-5.837.963,5.689,5.689,0,0,0-5.605-3.68c-3.623,0-6.913,2.378-6.913,6.4,0,.506.056,1.018.113,1.642a6.181,6.181,0,0,0-1.472-.171c-3.907,0-6.8,2.719-6.8,6.4a12.049,12.049,0,0,0,.4,2.939,6.111,6.111,0,0,0-1.02-.056,6.667,6.667,0,0,0-4.931,2.378C191.792,748.91,191.282,751.175,192.245,754.294Z" fill="#1f1f1a"/>
      <path id="패스_672" data-name="패스 672" d="M195.472,753.275c-.506-1.642-.453-2.888.171-3.681a3.337,3.337,0,0,1,2.491-1.132c1.756-.057,2.433,1.189,3.454,4.416a67.461,67.461,0,0,0,2.6,6.63c.963,1.983,2.322,4.643,2.94,5.555.506.792.963,1.019,1.472,1.019a1.419,1.419,0,0,0,1.576-1.243,1.47,1.47,0,0,0,.01-.176,5.326,5.326,0,0,0-.793-1.869c-.507-.962-1.585-2.887-2.322-4.529-.793-1.812-1.7-4.077-2.433-6.12-.453-1.189-.962-2.888-1.471-4.587a20.667,20.667,0,0,1-1.189-5.384c0-1.812,1.358-3,3.4-3,1.472,0,2.433.736,3.057,3.4a56.59,56.59,0,0,0,2.719,9.518c.849,2.038,2.1,4.764,2.83,6.12a8.275,8.275,0,0,1,.963,1.755c0,.4-.737,1.02-1.359,1.869a2.006,2.006,0,0,0-.566,1.246,2.107,2.107,0,0,0,.566,1.132c.34.453.679.906,1.076.906a.709.709,0,0,0,.623-.339,19.507,19.507,0,0,1,5.894-4.988,26.024,26.024,0,0,1,7.366-2.662c1.019-.226,1.3-.453,1.3-1.019a1.149,1.149,0,0,0-1.169-1.13h-.021a9.8,9.8,0,0,0-1.755.056c-.567.057-.85-.226-1.189-.963a53.186,53.186,0,0,1-4.186-10.423,44.339,44.339,0,0,1-1.246-6.8,2.1,2.1,0,0,1,.679-2.266,3.933,3.933,0,0,1,3.284-.679c1.3.34,1.983,1.358,2.662,5.328a48.853,48.853,0,0,0,1.585,6.29,39.517,39.517,0,0,0,3.568,7.649,48.041,48.041,0,0,0,3.227,4.818c-.227.679-.623,1.132-1.926,2.209a14.479,14.479,0,0,0-3.791,4.3,9.736,9.736,0,0,0-1.245,4.359c0,1.075.226,1.3.9,1.3,1.189,0,2.152-.227,2.208-.736a9.4,9.4,0,0,1,1.756-4.875,26.3,26.3,0,0,1,2.831-2.774,7.47,7.47,0,0,0,3.058-4.417,14.287,14.287,0,0,1,1.075-2.718c1.076-1.981,3-4.247,6.008-4.247a2.47,2.47,0,0,1,2.264,1.077,3.064,3.064,0,0,1,.4,1.528,8.448,8.448,0,0,1-1.075,3.115c-1.246,2.66-3.284,6.742-3.284,11.442,0,10.255-3.625,15.355-6.461,17.96a18.2,18.2,0,0,1-12.291,4.874,19.613,19.613,0,0,1-10.594-3.114c-4.359-2.887-7.083-7.422-9.857-11.952a86.74,86.74,0,0,1-6.121-12.179C197.8,759.9,196.549,756.729,195.472,753.275Z" fill="#ffe450"/>
      <path id="패스_673" data-name="패스 673" d="M210.036,734.3c0-2.151,1.981-3,3.623-3,1.756,0,2.378.85,2.831,2.662a27.506,27.506,0,0,1,.736,4.416c.227,1.585,1.02,5.214,1.246,6.12a79.715,79.715,0,0,0,4.586,11.216,29.421,29.421,0,0,0-3.852,1.642c-1.358.737-1.642.737-2.207-.339a47.534,47.534,0,0,1-2.775-5.778,41.727,41.727,0,0,1-1.754-5.5,40.656,40.656,0,0,0-1.642-6.234A26.409,26.409,0,0,1,210.036,734.3Z" fill="#ffe450"/>
      <path id="패스_674" data-name="패스 674" d="M189.754,772.223c-1.2.742-7.556,4.071-8.993,4.6-1.024.381-2.136.289-2.79-1.647-.8-2.393.324-2.959,1.931-3.582,1.419-.551,7.314-2.682,8.683-3.053.963-.257,1.632.067,2.095,1.226.507,1.271.16,1.781-.926,2.455" fill="#1f1f1a"/>
      <path id="패스_675" data-name="패스 675" d="M184.514,758.731c-1.709.046-8.807-.258-10.429-.417-1.41-.139-1.982-.762-1.825-2.805.166-2.193,1.02-2.332,2.4-2.193,1.605.154,9.044,1.365,10.228,1.729,1.225.382,1.394.937,1.245,2.008-.19,1.39-.819,1.652-1.621,1.678" fill="#1f1f1a"/>
      <path id="패스_676" data-name="패스 676" d="M185.394,744.359c-1.956-.617-7.763-4.133-9.276-5.039-1.369-.823-1.544-1.565-.592-3.371.844-1.6,1.781-1.875,3.171-1.154,1.611.839,7.3,5.271,8.385,6.141,1.05.845.906,1.283.356,2.368s-1.066,1.364-2.044,1.055" fill="#1f1f1a"/>
    </g>
  </g>
</svg>
