<svg xmlns="http://www.w3.org/2000/svg" xmlns:xlink="http://www.w3.org/1999/xlink" width="180" height="36" viewBox="0 0 180 36">
  <defs>
    <linearGradient id="linear-gradient" x1="0.04" y1="0.465" x2="1" y2="0.5" gradientUnits="objectBoundingBox">
      <stop offset="0" stop-color="#00cce9"/>
      <stop offset="1" stop-color="#00e5b6"/>
    </linearGradient>
  </defs>
  <g id="그룹_615" data-name="그룹 615" transform="translate(-309 -14)">
    <rect id="사각형_866" data-name="사각형 866" width="180" height="36" transform="translate(309 14)" fill="#fff"/>
    <g id="그룹_433" data-name="그룹 433" transform="translate(296.002 12.601)">
      <g id="그룹_431" data-name="그룹 431">
        <path id="패스_600" data-name="패스 600" d="M59.23,7.649C45.893,7.212,43.718,2.4,43.718,2.4s-2.174,4.812-15.511,5.25c0,0-.68,26.421,15.511,27.953C59.91,34.07,59.23,7.649,59.23,7.649Z" fill="url(#linear-gradient)"/>
        <g id="그룹_429" data-name="그룹 429" opacity="0.7">
          <path id="패스_601" data-name="패스 601" d="M65.884,21.476a16.249,16.249,0,0,0-6.971,1.46l-.17-.017a4.089,4.089,0,0,0-.691.816s1.067-1.278,7.056-.612,7.2-3.733,7.2-3.733-.175.006-.5.023A9.057,9.057,0,0,1,65.884,21.476Z" fill="#00e5b6" opacity="0.5" style="isolation: isolate"/>
          <path id="패스_602" data-name="패스 602" d="M68.373,17.356c-1.211.126-7.123,1.17-9.639,5.563h.009l.17.017a16.249,16.249,0,0,1,6.971-1.46,9.055,9.055,0,0,0,5.929-2.061A7.051,7.051,0,0,0,74.166,14.7S69.585,17.231,68.373,17.356Z" fill="#00e5b6" opacity="0.8" style="isolation: isolate"/>
          <path id="패스_603" data-name="패스 603" d="M58.091,23.739s-.337-6.64,8.094-8.838c0,0,5.832-1.2,7.945-3.779,0,0,.6,7.241-10.049,9.465C64.081,20.587,60.229,21.274,58.091,23.739Z" fill="#00e5b6"/>
        </g>
        <g id="그룹_430" data-name="그룹 430" opacity="0.7">
          <path id="패스_604" data-name="패스 604" d="M21.284,20.092a16.248,16.248,0,0,1,6.97,1.46l.174-.017a4.051,4.051,0,0,1,.69.816s-1.066-1.278-7.055-.612-7.2-3.733-7.2-3.733.18,0,.5.022A9.059,9.059,0,0,0,21.284,20.092Z" fill="#00cce9" opacity="0.5" style="isolation: isolate"/>
          <path id="패스_605" data-name="패스 605" d="M18.8,15.972c1.209.126,7.123,1.17,9.639,5.562h-.009l-.175.017a16.26,16.26,0,0,0-6.97-1.46,9.059,9.059,0,0,1-5.929-2.062A7.051,7.051,0,0,1,13,13.311S17.586,15.847,18.8,15.972Z" fill="#00cce9" opacity="0.8" style="isolation: isolate"/>
          <path id="패스_606" data-name="패스 606" d="M29.077,22.354s.336-6.64-8.094-8.837c0,0-5.832-1.2-7.946-3.779,0,0-.6,7.241,10.048,9.464C23.085,19.2,26.939,19.889,29.077,22.354Z" fill="#00cce9"/>
        </g>
      </g>
      <path id="패스_607" data-name="패스 607" d="M95.4,26.573c-1.458,5.088-9.53,6.851-14.143,4.307a7.672,7.672,0,0,1-3.188-3.459c-.509-1.018-.305-2.781,1.119-3.12a2.522,2.522,0,0,1,2.884,1.119,5.567,5.567,0,0,0,2.543,2.271c2.985,1.017,6.411-.542,6.411-3.154,0-2.136-1.289-2.747-3.222-3.221-2.137-.442-4.511-.272-6.58-1.188-4.137-1.73-4.342-7.6-1.357-10.446,1.458-1.289,3.495-1.8,5.936-1.9,2.713-.1,5.7.542,7.291,1.9,1.154.916,2.709,3.223.984,4.274-1.424.915-2.612-.543-3.561-1.224a7.347,7.347,0,0,0-4.817-1.017c-1.966.237-3.56,1.288-3.391,3.32.1,1.458,1.66,1.933,2.985,2.1,2,.272,4.107.238,6.037.984a6.462,6.462,0,0,1,4.036,3.932A8.171,8.171,0,0,1,95.4,26.573Z" fill="#2d2d2d"/>
      <path id="패스_608" data-name="패스 608" d="M116.15,31.626a2.686,2.686,0,0,1-3.561-.644,71.166,71.166,0,0,1-4.07-5.969l-2.849-4.307c-.779-1.224-1.628-2.85-2.543-4.172l-.1,12.956V29.8a2.585,2.585,0,0,1-.813,1.967,1.92,1.92,0,0,1-.882.373c-2.238.408-2.916-1.594-2.781-3.188V28.37l.068-2.644.033-4.918c.034-1.425.034-2.952.034-4.544-.034-1.933.035-4.273.136-6.139A2.983,2.983,0,0,1,99.192,8.8a1.5,1.5,0,0,1,.713-.813,3.131,3.131,0,0,1,2-.272,3.231,3.231,0,0,1,.678.339,5.059,5.059,0,0,1,.612.577,8.955,8.955,0,0,1,.576.712,5.089,5.089,0,0,0,.437.712l.373.543,7.834,12.345V20.707c0-1.425-.033-2.951-.067-4.579,0-1.9,0-4.2.1-6.105a3.187,3.187,0,0,1,.34-1.322,2.315,2.315,0,0,1,3.391-.679,1.558,1.558,0,0,1,.374.543,3.344,3.344,0,0,1,.2.78,3.664,3.664,0,0,1,.1.848c0,5.63.034,11.667.068,17.3,0,.645.068,1.223.034,1.866A2.877,2.877,0,0,1,116.15,31.626Z" fill="#2d2d2d"/>
      <path id="패스_609" data-name="패스 609" d="M137.406,26.573c-1.458,5.088-9.53,6.851-14.143,4.307a7.672,7.672,0,0,1-3.188-3.459c-.509-1.018-.305-2.781,1.119-3.12a2.522,2.522,0,0,1,2.884,1.119,5.567,5.567,0,0,0,2.543,2.271c2.985,1.017,6.411-.542,6.411-3.154,0-2.136-1.29-2.747-3.222-3.221-2.137-.442-4.511-.272-6.58-1.188-4.137-1.73-4.342-7.6-1.357-10.446,1.458-1.289,3.495-1.8,5.936-1.9,2.708-.1,5.7.542,7.291,1.9,1.154.916,2.709,3.223.984,4.274-1.424.915-2.612-.543-3.561-1.224a7.347,7.347,0,0,0-4.817-1.017c-1.966.237-3.56,1.288-3.391,3.32.1,1.458,1.66,1.933,2.985,2.1,2,.272,4.107.238,6.037.984a6.462,6.462,0,0,1,4.036,3.932A8.171,8.171,0,0,1,137.406,26.573Z" fill="#2d2d2d"/>
      <path id="패스_610" data-name="패스 610" d="M165.13,31.253a1.242,1.242,0,0,1-.66,1.626,1.331,1.331,0,0,1-.222.07,3.972,3.972,0,0,1-1.6.237h-15.77c-.916,0-1.933,0-2.917-.034-1.223-.033-1.628-.881-1.7-1.9l-.135-2.238a2.634,2.634,0,0,1,.373-1.8,3.123,3.123,0,0,1,2.442-.746H146c.2,0,.339.033.474.033h14.788V25.318H146.137a5.477,5.477,0,0,0-.747,0h-.813a5.93,5.93,0,0,1-1.153-.068c-.408-.1-.747-.1-.984-.474a1.7,1.7,0,0,1-.2-1.459c.237-.712,1.255-.814,1.763-.915a10.206,10.206,0,0,1,1.049-.069h.577a4.065,4.065,0,0,0,.643.035H161.6c2.272,0,3.562.644,3.562,2.238V26.98a1.951,1.951,0,0,1-.984,1.7,3.262,3.262,0,0,1-1.764.305h-16.11v1.257h17.3A1.485,1.485,0,0,1,165.13,31.253Z" fill="#2d2d2d"/>
      <path id="패스_611" data-name="패스 611" d="M159.954,8.937a5.24,5.24,0,0,0-.069-1.458,2.649,2.649,0,0,0-.474-1.049,1.634,1.634,0,0,0-1.6-.509,1.729,1.729,0,0,0-1.39.814,4.811,4.811,0,0,0-.271,1.764v3.8a15.886,15.886,0,0,0-1.835.136,2.082,2.082,0,0,0-1.048.373,9.76,9.76,0,0,0-.678-1.323h.272a1.821,1.821,0,0,0,1.9-1.729,1.848,1.848,0,0,0-1.9-1.764H149V6.871a1.933,1.933,0,0,0-3.764,0V7.99h-3.663a1.828,1.828,0,0,0-1.9,1.754v.01a1.8,1.8,0,0,0,1.868,1.73h.3a5.882,5.882,0,0,0-1.188,3.7,5.966,5.966,0,0,0,3.9,5.494,7.065,7.065,0,0,0,6.884-.746,5.354,5.354,0,0,0,2.374-4.07,3.313,3.313,0,0,0,1.6.2h.746v2.95a2.545,2.545,0,0,0,1.049,1.8,1.819,1.819,0,0,0,.95.271,1.353,1.353,0,0,0,.881-.373,1.79,1.79,0,0,0,.577-.645,3.736,3.736,0,0,0,.373-1.525V15.452Zm-12.176,8.682c-1.628.305-3.222-.305-3.222-2.442a2.583,2.583,0,0,1,2.41-2.745,2.709,2.709,0,0,1,.3,0,2.649,2.649,0,0,1,2.646,2.652c0,.032,0,.064,0,.1a2.312,2.312,0,0,1-2.132,2.442Z" fill="#2d2d2d"/>
      <path id="패스_612" data-name="패스 612" d="M161.762,7.345a2.884,2.884,0,0,1,.612-1.017,1.6,1.6,0,0,1,1.594-.543,1.566,1.566,0,0,1,1.254.881,3.76,3.76,0,0,1,.238,1.7V19.045a2.333,2.333,0,0,1-.916,1.835,1.427,1.427,0,0,1-.814.238,2.157,2.157,0,0,1-1.119-.34,2.258,2.258,0,0,1-.576-.677c-.679-1.256-.408-2.884-.408-4.274,0-.136,0-6.783.035-7.02A5.2,5.2,0,0,1,161.762,7.345Z" fill="#2d2d2d"/>
      <path id="패스_613" data-name="패스 613" d="M167.935,28.608a1.765,1.765,0,0,1,.436-1.187,4.038,4.038,0,0,1,2.447-.679l18.551.035c1.154,0,2.171-.136,2.917.508A2.006,2.006,0,0,1,193,28.743a1.629,1.629,0,0,1-1.119,1.527,9.157,9.157,0,0,1-2.849.508c-3.29.136-6.546.034-9.564.034-3.256,0-6.58.1-8.614,0C169.426,30.674,167.935,30.372,167.935,28.608Z" fill="#2d2d2d"/>
      <path id="패스_614" data-name="패스 614" d="M190.114,18.976a20.034,20.034,0,0,0-2.17-.271v-5.97a9.472,9.472,0,0,0-.1-1.56c.916-.2,2,.1,2.85-.27a1.172,1.172,0,0,0,.406-.238,2.042,2.042,0,0,0,.136-2.781,4.071,4.071,0,0,0-2.849-.849C184.654,7.037,177.227,7,173.5,7a11.17,11.17,0,0,0-3.527.407A1.772,1.772,0,0,0,168.7,9.572a1.855,1.855,0,0,0,.115.315c.712,1.424,2.34,1.223,3.7,1.288a20.014,20.014,0,0,0,.068,2.035v2.748c0,.813-.034,1.966,0,2.814-1.322.136-4.171-.1-3.932,2,.17,1.493,2.374,1.835,3.527,1.835,1.223.034,2.408.034,3.629.034,1.764-.034,7.258-.034,9.021-.034,1.154,0,2.341.034,3.5,0,1.8-.034,3.223.339,3.392-1.9C191.844,19.35,191.234,19.145,190.114,18.976ZM183.5,18.7h-6.309a3.038,3.038,0,0,1-.238-.983V14.33a7.028,7.028,0,0,0-.034-.781,9.416,9.416,0,0,1,.034-2,.643.643,0,0,1,.175-.374H183.3a.7.7,0,0,1,.1.374c.1.611.1,2.645.1,2.678Z" fill="#2d2d2d"/>
      <g id="그룹_432" data-name="그룹 432">
        <path id="패스_615" data-name="패스 615" d="M35.712,21.071a.677.677,0,0,1-.7.653H34.99a.667.667,0,0,1-.7-.634V15.974a.661.661,0,0,1,.676-.645h.023a.672.672,0,0,1,.721.618v1.8h2.195V15.974a.66.66,0,0,1,.674-.645h.025a.673.673,0,0,1,.722.62v5.121a.678.678,0,0,1-.7.653h-.021a.666.666,0,0,1-.7-.632v-1.9H35.712Z" fill="#fff"/>
        <path id="패스_616" data-name="패스 616" d="M40.132,21.015v-.039l.014-4.921a.632.632,0,0,1,.6-.658h3.391a.658.658,0,0,1,0,1.311H41.619l-.007,1.027h1.359a.658.658,0,0,1,0,1.31H41.612l-.008,1.3h2.528a.658.658,0,0,1,0,1.311H40.724A.624.624,0,0,1,40.132,21.015Z" fill="#fff"/>
        <path id="패스_617" data-name="패스 617" d="M45.366,20.976V15.985a.749.749,0,0,1,1.486,0l-.021,4.268h2.052a.721.721,0,0,1,0,1.437H46.016A.688.688,0,0,1,45.366,20.976Z" fill="#fff"/>
        <path id="패스_618" data-name="패스 618" d="M54.871,17.34a1.917,1.917,0,0,1-1.913,1.922H51.543v1.82c0,.46-.35.644-.743.644a.647.647,0,0,1-.686-.606.465.465,0,0,1,0-.053V16.14a.7.7,0,0,1,.66-.735H52.93a1.889,1.889,0,0,1,1.941,1.836Q54.873,17.291,54.871,17.34Zm-1.458,0a.546.546,0,0,0-.541-.552H51.53v1.089h1.323a.538.538,0,0,0,.559-.518Z" fill="#fff"/>
      </g>
    </g>
  </g>
</svg>
