<svg xmlns="http://www.w3.org/2000/svg" width="80" height="80" viewBox="0 0 80 80">
  <g id="그룹_543" data-name="그룹 543" transform="translate(-688.486 -635.23)">
    <path id="패스_707" data-name="패스 707" d="M768.486,702.344a12.95,12.95,0,0,1-13.012,12.886H701.5a12.949,12.949,0,0,1-13.012-12.886V648.116A12.949,12.949,0,0,1,701.5,635.23h53.976a12.95,12.95,0,0,1,13.012,12.886Z" fill="#ee3134"/>
    <path id="패스_708" data-name="패스 708" d="M719.691,676.632a14.139,14.139,0,0,1-.663-9.127c1.386-4.833,5.121-5.787,6.476-5.727a4.508,4.508,0,0,1,3.976,2.028c.873,1.581,1.325,3.46.3,6.98s-2.47,8.173-2.651,9.157a5.217,5.217,0,0,0,1.356,4.922c1.867,2.058,5.18,2,6.717,1.372a10.255,10.255,0,0,0,4.759-3.579,23.319,23.319,0,0,0,3.916-10.291c.512-4.117.542-8.143-1.205-11.215s-4.519-6.2-11.024-6.921a18.478,18.478,0,0,0-15.061,4.743,17.086,17.086,0,0,0-4.829,14.4,10.125,10.125,0,0,0,2.048,4.494c.723.855.964,1.173.7,2.227s-.642,2.367-.763,2.884a1.256,1.256,0,0,1-1.888.815,10.758,10.758,0,0,1-5.341-4.932,19.169,19.169,0,0,1-1.907-9.485,21.4,21.4,0,0,1,3.031-9.744,23.816,23.816,0,0,1,10.121-9.008,27.733,27.733,0,0,1,12.49-2.6,24.59,24.59,0,0,1,11.787,2.8,21.075,21.075,0,0,1,7.631,6.841,19.53,19.53,0,0,1,3.313,9.657A34.676,34.676,0,0,1,751.618,678a22.7,22.7,0,0,1-5.461,9.506,17.079,17.079,0,0,1-9.177,4.931c-2.972.477-8.795.975-12.149-4.1,0,0-1.867,7.576-2.349,9.227a22.1,22.1,0,0,1-2.149,5.369,53.4,53.4,0,0,1-4.277,6.542c-.622.716-.984.458-1.1-.159a53.028,53.028,0,0,1-.522-8.034,29.461,29.461,0,0,1,.7-5.468C715.313,694.947,719.691,676.632,719.691,676.632Z" fill="#fff"/>
  </g>
</svg>
