<svg xmlns="http://www.w3.org/2000/svg" xmlns:xlink="http://www.w3.org/1999/xlink" width="80" height="80" viewBox="0 0 80 80">
  <defs>
    <linearGradient id="linear-gradient" y1="0.5" x2="1" y2="0.5" gradientUnits="objectBoundingBox">
      <stop offset="0" stop-color="#ed9423"/>
      <stop offset="1" stop-color="#e83924"/>
    </linearGradient>
  </defs>
  <g id="그룹_545" data-name="그룹 545" transform="translate(-102.233 -271.174)">
    <rect id="사각형_231" data-name="사각형 231" width="80" height="80" rx="11.775" transform="translate(102.233 271.174)" fill="url(#linear-gradient)"/>
    <g id="그룹_544" data-name="그룹 544">
      <path id="패스_709" data-name="패스 709" d="M110.509,313.9a.268.268,0,0,0-.261.251l-.474,3.558.474,3.5a.267.267,0,0,0,.261.251.271.271,0,0,0,.259-.249h0l.562-3.5-.562-3.558A.272.272,0,0,0,110.509,313.9Z" fill="#fff"/>
      <path id="패스_710" data-name="패스 710" d="M113.179,311.958a.271.271,0,0,0-.541,0L112,317.711l.638,5.626a.27.27,0,0,0,.54,0l.726-5.627Z" fill="#fff"/>
      <path id="패스_711" data-name="패스 711" d="M123.235,306.651a.5.5,0,0,0-.49.481l-.509,10.585.509,6.84a.491.491,0,0,0,.981,0v0l.575-6.84-.575-10.585A.5.5,0,0,0,123.235,306.651Z" fill="#fff"/>
      <path id="패스_712" data-name="패스 712" d="M118.031,310.33a.388.388,0,0,0-.382.37l-.572,7.014.572,6.785a.381.381,0,0,0,.762,0l.65-6.785-.65-7.015A.39.39,0,0,0,118.031,310.33Z" fill="#fff"/>
      <path id="패스_713" data-name="패스 713" d="M128.524,325.034a.606.606,0,0,0,.6-.589l.5-6.726-.5-14.091a.6.6,0,0,0-1.2,0l-.443,14.09.443,6.728A.6.6,0,0,0,128.524,325.034Z" fill="#fff"/>
      <path id="패스_714" data-name="패스 714" d="M139.353,325.066a.828.828,0,0,0,.824-.81v0l.348-6.532-.348-16.275a.824.824,0,0,0-1.648,0l-.31,16.268c0,.011.31,6.542.31,6.542A.826.826,0,0,0,139.353,325.066Z" fill="#fff"/>
      <path id="패스_715" data-name="패스 715" d="M133.9,325.04a.714.714,0,0,0,.714-.7v.006l.422-6.624-.423-14.194a.714.714,0,0,0-1.427,0l-.376,14.195.377,6.621A.71.71,0,0,0,133.9,325.04Z" fill="#fff"/>
      <path id="패스_716" data-name="패스 716" d="M120.623,324.979a.442.442,0,0,0,.435-.424l.613-6.841-.613-6.509a.436.436,0,0,0-.872,0l-.54,6.506.54,6.841A.44.44,0,0,0,120.623,324.979Z" fill="#fff"/>
      <path id="패스_717" data-name="패스 717" d="M115.459,324.6a.333.333,0,0,0,.325-.313l.689-6.577-.688-6.827a.335.335,0,0,0-.326-.314.331.331,0,0,0-.325.314l-.607,6.827.607,6.575A.33.33,0,0,0,115.459,324.6Z" fill="#fff"/>
      <path id="패스_718" data-name="패스 718" d="M136.614,303.291a.765.765,0,0,0-.769.756l-.343,13.676.343,6.58a.769.769,0,0,0,1.538-.005v.006l.385-6.581-.385-13.678A.765.765,0,0,0,136.614,303.291Z" fill="#fff"/>
      <path id="패스_719" data-name="패스 719" d="M125.87,325.048a.555.555,0,0,0,.547-.535l.536-6.8-.536-13a.548.548,0,0,0-1.1,0l-.474,13,.475,6.8A.55.55,0,0,0,125.87,325.048Z" fill="#fff"/>
      <path id="패스_720" data-name="패스 720" d="M131.858,324.407v0l.46-6.682-.46-14.567a.658.658,0,0,0-1.315,0l-.409,14.565.41,6.686a.657.657,0,0,0,1.314,0Z" fill="#fff"/>
      <path id="패스_721" data-name="패스 721" d="M166.709,309.324a8.051,8.051,0,0,0-3.089.612,14.018,14.018,0,0,0-14.032-12.672,14.411,14.411,0,0,0-5.107.942c-.6.23-.763.466-.77.926V324.14a.959.959,0,0,0,.863.931c.02,0,21.992.013,22.134.013a7.881,7.881,0,1,0,0-15.76Z" fill="#fff"/>
      <path id="패스_722" data-name="패스 722" d="M142.079,299.11a.883.883,0,0,0-.88.866l-.36,17.75.361,6.442a.879.879,0,0,0,1.758-.007v.008l.392-6.443-.392-17.751A.882.882,0,0,0,142.079,299.11Z" fill="#fff"/>
    </g>
  </g>
</svg>
