<svg xmlns="http://www.w3.org/2000/svg" width="80" height="80" viewBox="0 0 80 80">
  <g id="threads_logo" transform="translate(-100 -1669)">
    <path id="스레드_SVG" data-name="스레드 SVG" d="M66.557,37.078q-.517-.248-1.049-.476C64.89,25.224,58.673,18.71,48.234,18.644h-.142c-6.244,0-11.437,2.665-14.633,7.515L39.2,30.1A10.177,10.177,0,0,1,48.1,25.7h.1c3.437.022,6.031,1.021,7.71,2.97a11.707,11.707,0,0,1,2.443,5.854,43.925,43.925,0,0,0-9.867-.475c-9.925.572-16.306,6.36-15.877,14.4a12.405,12.405,0,0,0,5.723,9.883A17.665,17.665,0,0,0,48.972,61.01c5.191-.285,9.263-2.265,12.1-5.886a21.789,21.789,0,0,0,4.125-10.8,12.746,12.746,0,0,1,5.32,5.819,14.527,14.527,0,0,1-3.561,15.99c-4.716,4.712-10.385,6.75-18.953,6.813-9.5-.07-16.692-3.118-21.365-9.059C22.265,58.319,20,50.284,19.919,40,20,29.716,22.265,21.681,26.641,16.118,31.314,10.177,38.5,7.129,48.005,7.059c9.573.071,16.886,3.134,21.738,9.1a29.6,29.6,0,0,1,5.355,10.9l6.728-1.8a36.414,36.414,0,0,0-6.758-13.612C68.848,4,59.751.081,48.029,0h-.047c-11.7.081-20.694,4.017-26.737,11.7C15.867,18.536,13.094,28.048,13,39.972v.056c.093,11.924,2.867,21.436,8.245,28.272C27.288,75.982,36.284,79.919,47.982,80h.047c10.4-.072,17.731-2.795,23.77-8.829a21.645,21.645,0,0,0,5.059-23.862A20.44,20.44,0,0,0,66.557,37.078ZM48.6,53.961c-4.35.245-8.869-1.708-9.092-5.89-.165-3.1,2.207-6.561,9.359-6.973q1.229-.071,2.412-.07a34,34,0,0,1,7.238.735C57.693,52.056,52.859,53.727,48.6,53.961Z" transform="translate(93 1669)"/>
    <rect id="사각형_4841" data-name="사각형 4841" width="80" height="80" transform="translate(100 1669)" fill="none"/>
  </g>
</svg>
