<svg xmlns="http://www.w3.org/2000/svg" width="80" height="80.001" viewBox="0 0 80 80.001">
  <g id="그룹_555" data-name="그룹 555" transform="translate(-425 -1147)">
    <rect id="사각형_244" data-name="사각형 244" width="80" height="80" transform="translate(425 1147)" fill="#fff"/>
    <g id="页面1" transform="translate(289.559 841.849)">
      <g id="编组-2">
        <path id="路径" d="M167.152,336.659v-3.118a23.339,23.339,0,0,0-3.287-.281,24.231,24.231,0,0,0-13.97,44.155,24.208,24.208,0,0,1,17.257-40.756Z" fill="#6bc9ce"/>
        <path id="路径-2" data-name="路径" d="M167.743,371.972a11.121,11.121,0,0,0,11.12-10.6V308.5h9.707a18.051,18.051,0,0,1-.283-3.347H175.01v52.816a11.119,11.119,0,0,1-11.119,10.681,11.347,11.347,0,0,1-5.136-1.277A11.161,11.161,0,0,0,167.743,371.972Z" fill="#6bc9ce"/>
        <path id="路径-3" data-name="路径" d="M206.7,326.438V323.5a18.184,18.184,0,0,1-10.041-3.015,18.431,18.431,0,0,0,10.041,5.954Z" fill="#6bc9ce"/>
        <path id="路径-4" data-name="路径" d="M196.659,320.484a18.136,18.136,0,0,1-4.545-12.009H188.57a18.291,18.291,0,0,0,8.089,12.009Z" fill="#ee3655"/>
        <path id="路径-5" data-name="路径" d="M163.865,346.471a11.081,11.081,0,0,0-5.136,20.9,11.061,11.061,0,0,1,9.014-17.555,11.78,11.78,0,0,1,3.287.511v-13.44a23.482,23.482,0,0,0-3.287-.256h-.591v10.221A11.457,11.457,0,0,0,163.865,346.471Z" fill="#ee3655"/>
        <path id="路径-6" data-name="路径" d="M206.7,326.438v10.221a31.622,31.622,0,0,1-18.413-5.954v26.856A24.417,24.417,0,0,1,149.9,377.415a24.388,24.388,0,0,0,42.219-16.507V334.129a31.661,31.661,0,0,0,18.438,5.877V326.847A18.89,18.89,0,0,1,206.7,326.438Z" fill="#ee3655"/>
        <path id="路径-7" data-name="路径" d="M188.287,357.561V330.7a31.617,31.617,0,0,0,18.439,5.877V326.361a18.426,18.426,0,0,1-10.067-5.877,18.291,18.291,0,0,1-8.089-12.009h-9.707v52.893a11.156,11.156,0,0,1-20.16,6.056,11.081,11.081,0,0,1,5.136-20.9,11.492,11.492,0,0,1,3.288.511V336.812A24.208,24.208,0,0,0,149.869,377.7a24.754,24.754,0,0,0,38.418-20.135Z"/>
      </g>
    </g>
  </g>
</svg>
