<svg xmlns="http://www.w3.org/2000/svg" width="80" height="80" viewBox="0 0 80 80">
  <g id="그룹_550" data-name="그룹 550" transform="translate(-884.842 -635.694)">
    <rect id="사각형_236" data-name="사각형 236" width="80" height="80" rx="11.775" transform="translate(884.842 635.694)" fill="#36516a"/>
    <path id="패스_723" data-name="패스 723" d="M916.24,687.026a12.841,12.841,0,0,0,.624,4.546,7.782,7.782,0,0,0,2.242,2.959,11.27,11.27,0,0,0,3.9,2.142,16.849,16.849,0,0,0,5.267.753,21.639,21.639,0,0,0,4.882-.525,26.027,26.027,0,0,0,5.043-1.839v-6.834a11.867,11.867,0,0,1-6.568,2.146,6.28,6.28,0,0,1-3.3-.866,3.311,3.311,0,0,1-1.489-1.713,17.783,17.783,0,0,1-.4-4.853V671.793h10.322V664.97H926.446V653.961H920.29a16.936,16.936,0,0,1-1.517,5.533,11.882,11.882,0,0,1-2.921,3.726,12.751,12.751,0,0,1-4.37,2.382v6.191h4.758Z" fill="#fff"/>
  </g>
</svg>
