<svg xmlns="http://www.w3.org/2000/svg" width="80" height="80" viewBox="0 0 80 80">
  <g id="그룹_535" data-name="그룹 535" transform="translate(-391.711 -634.374)">
    <rect id="사각형_221" data-name="사각형 221" width="80" height="80" rx="10" transform="translate(391.711 634.374)" fill="#06a5f4"/>
    <path id="패스_704" data-name="패스 704" d="M422.436,694.692c18.868,0,29.187-15.632,29.187-29.187,0-.445-.009-.886-.029-1.327a20.91,20.91,0,0,0,5.118-5.311,20.469,20.469,0,0,1-5.892,1.615,10.293,10.293,0,0,0,4.511-5.675,20.587,20.587,0,0,1-6.513,2.491,10.268,10.268,0,0,0-17.482,9.355,29.124,29.124,0,0,1-21.145-10.718,10.267,10.267,0,0,0,3.176,13.7,10.174,10.174,0,0,1-4.646-1.284c0,.043,0,.087,0,.131a10.262,10.262,0,0,0,8.231,10.057,10.241,10.241,0,0,1-4.633.176,10.271,10.271,0,0,0,9.583,7.125,20.584,20.584,0,0,1-12.741,4.391,20.809,20.809,0,0,1-2.447-.142,29.041,29.041,0,0,0,15.725,4.608" fill="#fff"/>
  </g>
</svg>
