<svg xmlns="http://www.w3.org/2000/svg" width="80" height="80" viewBox="0 0 80 80">
  <g id="그룹_557" data-name="그룹 557" transform="translate(-268.137 -738.306)">
    <rect id="사각형_246" data-name="사각형 246" width="80" height="80" rx="11.775" transform="translate(268.137 738.306)" fill="#19b2e5"/>
    <path id="패스_726" data-name="패스 726" d="M327.179,754.786c-7.459-.271-12.5,4.005-15.154,12.761a9.662,9.662,0,0,1,3.982-.886c9.455,0-2.176,18.276-5.072,18.276-3.41,0-5.461-16.324-6.156-20.781q-1.449-9.3-7.725-8.689-2.652.252-7.964,4.888-3.867,3.546-7.846,7.082l2.53,3.3q3.614-2.562,4.215-2.564c6.93,0,6.472,33.665,17.442,33.665,10.538,0,29.085-25.819,29.547-36.168l.029-.023C335.307,758.553,332.719,754.923,327.179,754.786Z" fill="#fff"/>
  </g>
</svg>
