<svg xmlns="http://www.w3.org/2000/svg" width="80" height="80" viewBox="0 0 80 80">
  <g id="그룹_554" data-name="그룹 554" transform="translate(-1085 -857)">
    <rect id="사각형_243" data-name="사각형 243" width="80" height="80" transform="translate(1085 857)" fill="#fff"/>
    <g id="그룹_534" data-name="그룹 534" transform="translate(810.311 247.506)">
      <path id="패스_702" data-name="패스 702" d="M353.018,630.239a10.017,10.017,0,0,0-7.073-7.072c-6.239-1.673-31.255-1.673-31.255-1.673s-25.017,0-31.256,1.673a10.017,10.017,0,0,0-7.073,7.072c-1.671,6.238-1.671,19.255-1.671,19.255s0,13.017,1.671,19.256a10.021,10.021,0,0,0,7.073,7.073c6.239,1.671,31.256,1.671,31.256,1.671s25.016,0,31.255-1.671a10.021,10.021,0,0,0,7.073-7.073c1.672-6.239,1.672-19.256,1.672-19.256s0-13.017-1.672-19.255" fill="#ec2123"/>
      <path id="패스_703" data-name="패스 703" d="M306.69,661.495l20.784-12-20.784-12Z" fill="#fff"/>
    </g>
  </g>
</svg>
